<?xml version="1.0" encoding="utf-8"?>
<!-- Generator: Adobe Illustrator 21.0.0, SVG Export Plug-In . SVG Version: 6.00 Build 0)  -->
<svg version="1.1" id="Layer_1" xmlns="http://www.w3.org/2000/svg" xmlns:xlink="http://www.w3.org/1999/xlink" x="0px" y="0px"
	 viewBox="0 0 151 150" style="enable-background:new 0 0 151 150;" xml:space="preserve">
<style type="text/css">
	.st0{fill:#FFFFFF;}
	.st1{fill:#6D6E71;}
	.st2{fill:#5A5B5E;}
	.st3{fill:#AEB0B1;}
	.st4{fill:#FFFFFF;stroke:#58595B;stroke-width:4;stroke-linecap:round;stroke-linejoin:round;stroke-miterlimit:10;}
	.st5{fill:#58595B;}
	.st6{fill:#A8724B;}
	.st7{fill:#916341;}
	.st8{fill:#754921;}
	.st9{fill:#FF6B6B;}
	.st10{fill:#FFD57E;}
	.st11{fill:#D9FF93;}
	.st12{fill:#E8E8E8;}
	.st13{fill:#85808A;}
	.st14{fill:#1787FF;}
	.st15{fill:#4DE69F;}
	.st16{fill:#C92A2A;}
	.st17{fill:#00386E;}
	.st18{fill:#231F20;}
	.st19{fill:#CCCCCC;}
	.st20{fill:#A12222;}
	.st21{fill:#002D58;}
	.st22{fill:#1C191A;}
	.st23{fill:#851616;}
	.st24{fill:#B01E1E;}
	.st25{fill:#E32626;}
	.st26{fill:#991919;}
	.st27{fill:#591300;}
	.st28{fill:#FF880F;}
	.st29{fill:#D16F0C;}
	.st30{fill:#F3D9D9;}
	.st31{fill:#ECC6C6;}
	.st32{fill:#E6B6B6;}
	.st33{fill:#F1D2D2;}
	.st34{fill:#E5B0B0;}
	.st35{fill:#D3AEAA;}
	.st36{fill:#F0CFCF;}
	.st37{fill:#F2D4D4;}
	.st38{fill:#B3F294;}
	.st39{fill:#99C4FF;}
	.st40{fill:#D2FFBA;}
	.st41{fill:#BDD9FF;}
	.st42{fill:#7C7E82;}
	.st43{fill:#E06AC6;}
	.st44{fill:#D9B580;}
	.st45{fill:#B556A0;}
	.st46{fill:#AD9166;}
	.st47{fill:#805075;}
	.st48{fill:#7E40B8;}
	.st49{fill:#A9FF8A;}
	.st50{fill:#FFFEA2;}
	.st51{fill:#5CFFEC;}
	.st52{fill:#6B92ED;}
	.st53{fill:#A398E7;}
	.st54{fill:#7F75BD;}
	.st55{fill:#FF564C;}
	.st56{fill:#8A81C4;}
	.st57{fill:#585082;}
	.st58{fill:#339CEE;}
	.st59{fill:#CFCFCF;}
	.st60{fill:#3E314D;}
	.st61{fill:#CF170E;}
</style>
<g>
	<g id="XMLID_1_">
		<path class="st0" d="M100,85.09c1.29-3.11,2-6.51,2-10.09c0-4.18-0.97-8.13-2.7-11.65C94.99,54.56,85.95,48.5,75.5,48.5
			s-19.49,6.06-23.8,14.85C49.97,66.87,49,70.82,49,75s0.97,8.13,2.7,11.65c2.25,4.6,5.79,8.44,10.15,11.06
			c3.99,2.41,8.66,3.79,13.65,3.79c10.45,0,19.49-6.06,23.8-14.85C99.55,86.14,99.79,85.62,100,85.09z M115,75
			c0,5.33-1.06,10.4-2.98,15.04c-0.32,0.79-0.67,1.56-1.04,2.33c-6.43,13.1-19.9,22.13-35.48,22.13c-7.43,0-14.4-2.06-20.34-5.64
			c-6.5-3.91-11.78-9.65-15.14-16.49C37.45,87.13,36,81.24,36,75s1.45-12.13,4.02-17.37c6.43-13.1,19.9-22.13,35.48-22.13
			s29.05,9.03,35.48,22.13C113.55,62.87,115,68.76,115,75z"/>
		<path class="st0" d="M88,75c0,1.69-0.33,3.29-0.94,4.76c-0.1,0.25-0.21,0.49-0.33,0.74c-2.04,4.14-6.3,7-11.23,7
			c-2.35,0-4.56-0.65-6.44-1.79c-2.05-1.23-3.73-3.05-4.79-5.21C63.46,78.84,63,76.97,63,75s0.46-3.84,1.27-5.5
			c2.04-4.14,6.3-7,11.23-7s9.19,2.86,11.23,7C87.54,71.16,88,73.03,88,75z"/>
	</g>
	<g>
		<path class="st61" d="M33.779,117.724C31.826,113.743,27.734,111,23,111s-8.826,2.743-10.779,6.724
			C11.439,119.316,11,121.106,11,123s0.439,3.684,1.221,5.276c1.02,2.081,2.625,3.823,4.599,5.01C18.626,134.374,20.741,135,23,135
			c4.734,0,8.826-2.743,10.779-6.724c0.114-0.231,0.219-0.467,0.317-0.707C34.679,126.161,35,124.62,35,123
			C35,121.106,34.561,119.316,33.779,117.724z M30.444,126.065c-0.066,0.161-0.137,0.319-0.213,0.474
			c-1.31,2.671-4.056,4.511-7.231,4.511c-1.515,0-2.934-0.42-4.146-1.15c-1.324-0.796-2.401-1.965-3.085-3.361
			c-0.525-1.068-0.819-2.269-0.819-3.539c0-1.271,0.295-2.471,0.819-3.539c1.31-2.671,4.056-4.511,7.231-4.511
			s5.922,1.84,7.231,4.511c0.525,1.068,0.819,2.269,0.819,3.539C31.051,124.087,30.835,125.12,30.444,126.065z"/>
		<path class="st61" d="M26.699,124.523C26.893,124.054,27,123.54,27,123c0-0.631-0.146-1.228-0.407-1.759
			C25.942,119.914,24.578,119,23,119s-2.942,0.914-3.593,2.241C19.146,121.772,19,122.369,19,123s0.146,1.228,0.407,1.759
			c0.34,0.694,0.875,1.274,1.533,1.67C21.542,126.791,22.247,127,23,127c1.578,0,2.942-0.914,3.593-2.241
			C26.631,124.681,26.666,124.603,26.699,124.523z"/>
	</g>
	<g>
		<path class="st61" d="M47.779,21.724C45.826,17.743,41.734,15,37,15s-8.826,2.743-10.779,6.724C25.439,23.316,25,25.106,25,27
			s0.439,3.684,1.221,5.276c1.02,2.081,2.625,3.823,4.599,5.01C32.626,38.374,34.741,39,37,39c4.734,0,8.826-2.743,10.779-6.724
			c0.114-0.231,0.219-0.467,0.317-0.707C48.679,30.161,49,28.62,49,27C49,25.106,48.561,23.316,47.779,21.724z M44.444,30.065
			c-0.066,0.161-0.137,0.319-0.213,0.474c-1.31,2.671-4.056,4.511-7.231,4.511c-1.515,0-2.934-0.42-4.146-1.15
			c-1.324-0.796-2.401-1.965-3.085-3.361c-0.525-1.068-0.819-2.269-0.819-3.539c0-1.271,0.295-2.471,0.819-3.539
			c1.31-2.671,4.056-4.511,7.231-4.511s5.922,1.84,7.231,4.511c0.525,1.068,0.819,2.269,0.819,3.539
			C45.051,28.087,44.835,29.12,44.444,30.065z"/>
		<path class="st61" d="M40.699,28.523C40.893,28.054,41,27.54,41,27c0-0.631-0.146-1.228-0.407-1.759
			C39.942,23.914,38.578,23,37,23s-2.942,0.914-3.593,2.241C33.146,25.772,33,26.369,33,27s0.146,1.228,0.407,1.759
			c0.34,0.694,0.875,1.274,1.533,1.67C35.542,30.791,36.247,31,37,31c1.578,0,2.942-0.914,3.593-2.241
			C40.631,28.681,40.666,28.603,40.699,28.523z"/>
	</g>
	<g>
		<path class="st61" d="M137.779,120.724C135.826,116.743,131.734,114,127,114s-8.826,2.743-10.779,6.724
			C115.439,122.316,115,124.106,115,126s0.439,3.684,1.221,5.276c1.02,2.081,2.625,3.823,4.599,5.01
			c1.806,1.089,3.921,1.714,6.18,1.714c4.734,0,8.826-2.743,10.779-6.724c0.114-0.231,0.219-0.467,0.317-0.707
			C138.679,129.161,139,127.62,139,126C139,124.106,138.561,122.316,137.779,120.724z M134.444,129.065
			c-0.066,0.161-0.137,0.319-0.213,0.474c-1.31,2.671-4.056,4.511-7.231,4.511c-1.515,0-2.934-0.42-4.146-1.15
			c-1.324-0.796-2.401-1.965-3.085-3.361c-0.525-1.068-0.819-2.269-0.819-3.539c0-1.271,0.295-2.471,0.819-3.539
			c1.31-2.671,4.056-4.511,7.231-4.511s5.922,1.84,7.231,4.511c0.525,1.068,0.819,2.269,0.819,3.539
			C135.051,127.087,134.835,128.12,134.444,129.065z"/>
		<path class="st61" d="M130.699,127.523C130.893,127.054,131,126.54,131,126c0-0.631-0.146-1.228-0.407-1.759
			C129.942,122.914,128.578,122,127,122c-1.578,0-2.942,0.914-3.593,2.241C123.146,124.772,123,125.369,123,126
			s0.146,1.228,0.407,1.759c0.34,0.694,0.875,1.274,1.533,1.67c0.602,0.363,1.307,0.571,2.06,0.571c1.578,0,2.942-0.914,3.593-2.241
			C130.631,127.681,130.666,127.603,130.699,127.523z"/>
	</g>
	<g>
		<path class="st61" d="M60.389,127.362C59.413,125.371,57.367,124,55,124s-4.413,1.371-5.389,3.362
			C49.22,128.158,49,129.053,49,130s0.22,1.842,0.611,2.638c0.51,1.04,1.312,1.911,2.299,2.505C52.813,135.687,53.871,136,55,136
			c2.367,0,4.413-1.371,5.389-3.362c0.057-0.116,0.109-0.234,0.159-0.354C60.839,131.58,61,130.81,61,130
			C61,129.053,60.78,128.158,60.389,127.362z M58.722,131.533c-0.033,0.081-0.068,0.16-0.106,0.237
			c-0.655,1.336-2.028,2.256-3.616,2.256c-0.758,0-1.467-0.21-2.073-0.575c-0.662-0.398-1.2-0.983-1.543-1.681
			c-0.262-0.534-0.41-1.134-0.41-1.77c0-0.635,0.147-1.236,0.41-1.77c0.655-1.336,2.028-2.256,3.616-2.256s2.961,0.92,3.616,2.256
			c0.262,0.534,0.41,1.134,0.41,1.77C59.025,130.543,58.917,131.06,58.722,131.533z"/>
		<path class="st61" d="M56.849,130.761C56.946,130.527,57,130.27,57,130c0-0.316-0.073-0.614-0.204-0.879
			C56.471,128.457,55.789,128,55,128s-1.471,0.457-1.796,1.121C53.073,129.386,53,129.684,53,130s0.073,0.614,0.204,0.879
			c0.17,0.347,0.438,0.637,0.766,0.835C54.271,131.896,54.624,132,55,132c0.789,0,1.471-0.457,1.796-1.121
			C56.815,130.841,56.833,130.801,56.849,130.761z"/>
	</g>
	<g>
		<path class="st61" d="M71.389,17.362C70.413,15.371,68.367,14,66,14s-4.413,1.371-5.389,3.362C60.22,18.158,60,19.053,60,20
			s0.22,1.842,0.611,2.638c0.51,1.04,1.312,1.911,2.299,2.505C63.813,25.687,64.871,26,66,26c2.367,0,4.413-1.371,5.389-3.362
			c0.057-0.116,0.109-0.234,0.159-0.354C71.839,21.58,72,20.81,72,20C72,19.053,71.78,18.158,71.389,17.362z M69.722,21.533
			c-0.033,0.081-0.068,0.16-0.106,0.237c-0.655,1.336-2.028,2.256-3.616,2.256c-0.758,0-1.467-0.21-2.073-0.575
			c-0.662-0.398-1.2-0.983-1.543-1.681c-0.262-0.534-0.41-1.134-0.41-1.77c0-0.635,0.147-1.236,0.41-1.77
			c0.655-1.336,2.028-2.256,3.616-2.256s2.961,0.92,3.616,2.256c0.262,0.534,0.41,1.134,0.41,1.77
			C70.025,20.543,69.917,21.06,69.722,21.533z"/>
		<path class="st61" d="M67.849,20.761C67.946,20.527,68,20.27,68,20c0-0.316-0.073-0.614-0.204-0.879
			C67.471,18.457,66.789,18,66,18s-1.471,0.457-1.796,1.121C64.073,19.386,64,19.684,64,20s0.073,0.614,0.204,0.879
			c0.17,0.347,0.438,0.637,0.766,0.835C65.271,21.896,65.624,22,66,22c0.789,0,1.471-0.457,1.796-1.121
			C67.815,20.841,67.833,20.801,67.849,20.761z"/>
	</g>
	<g>
		<path class="st61" d="M126.389,20.362C125.413,18.371,123.367,17,121,17s-4.413,1.371-5.389,3.362
			C115.22,21.158,115,22.053,115,23s0.22,1.842,0.611,2.638c0.51,1.04,1.312,1.911,2.299,2.505C118.813,28.687,119.871,29,121,29
			c2.367,0,4.413-1.371,5.389-3.362c0.057-0.116,0.109-0.234,0.159-0.354C126.839,24.58,127,23.81,127,23
			C127,22.053,126.78,21.158,126.389,20.362z M124.722,24.533c-0.033,0.081-0.068,0.16-0.106,0.237
			c-0.655,1.336-2.028,2.256-3.616,2.256c-0.758,0-1.467-0.21-2.073-0.575c-0.662-0.398-1.2-0.983-1.543-1.681
			c-0.262-0.534-0.41-1.134-0.41-1.77c0-0.635,0.147-1.236,0.41-1.77c0.655-1.336,2.028-2.256,3.616-2.256s2.961,0.92,3.616,2.256
			c0.262,0.534,0.41,1.134,0.41,1.77C125.025,23.543,124.917,24.06,124.722,24.533z"/>
		<path class="st61" d="M122.849,23.761C122.946,23.527,123,23.27,123,23c0-0.316-0.073-0.614-0.204-0.879
			C122.471,21.457,121.789,21,121,21s-1.471,0.457-1.796,1.121C119.073,22.386,119,22.684,119,23s0.073,0.614,0.204,0.879
			c0.17,0.347,0.438,0.637,0.766,0.835C120.271,24.896,120.624,25,121,25c0.789,0,1.471-0.457,1.796-1.121
			C122.815,23.841,122.833,23.801,122.849,23.761z"/>
	</g>
	<g>
		<path class="st61" d="M11.389,61.362C10.413,59.371,8.367,58,6,58s-4.413,1.371-5.389,3.362C0.22,62.158,0,63.053,0,64
			s0.22,1.842,0.611,2.638c0.51,1.04,1.312,1.911,2.299,2.505C3.813,69.687,4.871,70,6,70c2.367,0,4.413-1.371,5.389-3.362
			c0.057-0.116,0.109-0.234,0.159-0.354C11.839,65.58,12,64.81,12,64C12,63.053,11.78,62.158,11.389,61.362z M9.722,65.533
			c-0.033,0.081-0.068,0.16-0.106,0.237C8.961,67.105,7.588,68.025,6,68.025c-0.758,0-1.467-0.21-2.073-0.575
			c-0.662-0.398-1.2-0.983-1.543-1.681c-0.262-0.534-0.41-1.134-0.41-1.77c0-0.635,0.147-1.236,0.41-1.77
			C3.039,60.895,4.412,59.975,6,59.975s2.961,0.92,3.616,2.256c0.262,0.534,0.41,1.134,0.41,1.77
			C10.025,64.543,9.917,65.06,9.722,65.533z"/>
		<path class="st61" d="M7.849,64.761C7.946,64.527,8,64.27,8,64c0-0.316-0.073-0.614-0.204-0.879C7.471,62.457,6.789,62,6,62
			s-1.471,0.457-1.796,1.121C4.073,63.386,4,63.684,4,64c0,0.316,0.073,0.614,0.204,0.879c0.17,0.347,0.438,0.637,0.766,0.835
			C5.271,65.896,5.624,66,6,66c0.789,0,1.471-0.457,1.796-1.121C7.815,64.841,7.833,64.801,7.849,64.761z"/>
	</g>
	<g>
		<path class="st61" d="M150.389,72.362C149.413,70.371,147.367,69,145,69s-4.413,1.371-5.389,3.362
			C139.22,73.158,139,74.053,139,75s0.22,1.842,0.611,2.638c0.51,1.04,1.312,1.911,2.299,2.505C142.813,80.687,143.871,81,145,81
			c2.367,0,4.413-1.371,5.389-3.362c0.057-0.116,0.109-0.234,0.159-0.354C150.839,76.58,151,75.81,151,75
			C151,74.053,150.78,73.158,150.389,72.362z M148.722,76.533c-0.033,0.081-0.068,0.16-0.106,0.237
			c-0.655,1.336-2.028,2.256-3.616,2.256c-0.758,0-1.467-0.21-2.073-0.575c-0.662-0.398-1.2-0.983-1.543-1.681
			c-0.262-0.534-0.41-1.134-0.41-1.77c0-0.635,0.147-1.236,0.41-1.77c0.655-1.336,2.028-2.256,3.616-2.256s2.961,0.92,3.616,2.256
			c0.262,0.534,0.41,1.134,0.41,1.77C149.025,75.543,148.917,76.06,148.722,76.533z"/>
		<path class="st61" d="M146.849,75.761C146.946,75.527,147,75.27,147,75c0-0.316-0.073-0.614-0.204-0.879
			C146.471,73.457,145.789,73,145,73s-1.471,0.457-1.796,1.121C143.073,74.386,143,74.684,143,75s0.073,0.614,0.204,0.879
			c0.17,0.347,0.438,0.637,0.766,0.835C144.271,76.896,144.624,77,145,77c0.789,0,1.471-0.457,1.796-1.121
			C146.815,75.841,146.833,75.801,146.849,75.761z"/>
	</g>
	<g>
		<path class="st61" d="M104.389,141.362C103.413,139.371,101.367,138,99,138s-4.413,1.371-5.389,3.362
			C93.22,142.158,93,143.053,93,144s0.22,1.842,0.611,2.638c0.51,1.04,1.312,1.911,2.299,2.505C96.813,149.687,97.871,150,99,150
			c2.367,0,4.413-1.371,5.389-3.362c0.057-0.116,0.109-0.234,0.159-0.354C104.839,145.58,105,144.81,105,144
			C105,143.053,104.78,142.158,104.389,141.362z M102.722,145.533c-0.033,0.081-0.068,0.16-0.106,0.237
			c-0.655,1.336-2.028,2.256-3.616,2.256c-0.758,0-1.467-0.21-2.073-0.575c-0.662-0.398-1.2-0.983-1.543-1.681
			c-0.262-0.534-0.41-1.134-0.41-1.77c0-0.635,0.147-1.236,0.41-1.77c0.655-1.336,2.028-2.256,3.616-2.256s2.961,0.92,3.616,2.256
			c0.262,0.534,0.41,1.134,0.41,1.77C103.025,144.543,102.917,145.06,102.722,145.533z"/>
		<path class="st61" d="M100.849,144.761C100.946,144.527,101,144.27,101,144c0-0.316-0.073-0.614-0.204-0.879
			C100.471,142.457,99.789,142,99,142s-1.471,0.457-1.796,1.121C97.073,143.386,97,143.684,97,144s0.073,0.614,0.204,0.879
			c0.17,0.347,0.438,0.637,0.766,0.835C98.271,145.896,98.624,146,99,146c0.789,0,1.471-0.457,1.796-1.121
			C100.815,144.841,100.833,144.801,100.849,144.761z"/>
	</g>
</g>
</svg>
